{"asset": {"generator": "Khronos glTF Blender I/O v4.0.44", "version": "2.0"}, "scene": 0, "scenes": [{"name": "Scene", "nodes": [0]}], "nodes": [{"mesh": 0, "name": "Rope_3"}], "materials": [{"doubleSided": true, "name": "MI_Trim_Furniture", "pbrMetallicRoughness": {"baseColorTexture": {"index": 0}}}], "meshes": [{"name": "BezierCurve.005", "primitives": [{"attributes": {"POSITION": 0, "NORMAL": 1, "TEXCOORD_0": 2}, "indices": 3, "material": 0}]}], "textures": [{"sampler": 0, "source": 0}], "images": [{"uri": "tex/T_Trim_Furniture_BaseColor.png"}], "accessors": [{"bufferView": 0, "componentType": 5126, "count": 973, "max": [0.39840561151504517, 0.07461394369602203, 0.43808725476264954], "min": [-0.8296017646789551, -0.027140291407704353, -0.5126782059669495], "type": "VEC3"}, {"bufferView": 1, "componentType": 5126, "count": 973, "type": "VEC3"}, {"bufferView": 2, "componentType": 5126, "count": 973, "type": "VEC2"}, {"bufferView": 3, "componentType": 5123, "count": 5244, "type": "SCALAR"}], "bufferViews": [{"buffer": 0, "byteLength": 11676, "byteOffset": 0, "target": 34962}, {"buffer": 0, "byteLength": 11676, "byteOffset": 11676, "target": 34962}, {"buffer": 0, "byteLength": 7784, "byteOffset": 23352, "target": 34962}, {"buffer": 0, "byteLength": 10488, "byteOffset": 31136, "target": 34963}], "samplers": [{"magFilter": 9729, "minFilter": 9987}], "buffers": [{"byteLength": 41624, "uri": "Rope_3.bin"}]}