<svg xmlns="http://www.w3.org/2000/svg" width="512" height="512" viewBox="0 0 512 512"><defs><radialGradient id="bg" cx="50%" cy="40%" r="65%"><stop offset="0" stop-color="#9aa0a8"/><stop offset="1" stop-color="#464a52"/></radialGradient></defs><rect width="512" height="512" rx="64" fill="url(#bg)"/>
<g stroke="#1d2330" stroke-width="10" stroke-linejoin="round" stroke-linecap="round">
 <!-- gri yağmurluk -->
 <path d="M76 512 Q86 404 196 384 L316 384 Q426 404 436 512 Z" fill="#8a8f98"/>
 <path d="M196 384 L256 460 L316 384 Z" fill="#5d616a"/>
 <path d="M196 384 L238 470 L182 512 M316 384 L274 470 L330 512" fill="none" stroke="#5d616a"/>
 <path d="M210 384 Q256 410 302 384" fill="none" stroke="#5d616a"/>
 <!-- boyun -->
 <rect x="224" y="330" width="64" height="62" fill="#c98d6b"/>
 <!-- kulaklar -->
 <ellipse cx="128" cy="240" rx="24" ry="36" fill="#dba07c"/>
 <ellipse cx="384" cy="240" rx="24" ry="36" fill="#dba07c"/>
 <!-- kafa -->
 <path d="M132 202 Q132 96 256 94 Q380 96 380 202 L376 272 Q358 360 256 368 Q154 360 136 272 Z" fill="#e6ad88"/>
 <!-- fötr şapka -->
 <path d="M96 178 Q256 140 416 178 Q416 196 396 196 Q256 164 116 196 Q96 196 96 178 Z" fill="#7a7e86"/>
 <path d="M150 178 Q150 66 256 64 Q362 66 362 178 Q256 152 150 178 Z" fill="#7a7e86"/>
 <path d="M152 150 Q256 126 360 150 L362 176 Q256 150 150 176 Z" fill="#3a3f4a"/>
 <!-- kaşlar: şüpheci -->
 <path d="M172 196 Q200 188 228 196" fill="none" stroke-width="14" stroke="#3a2a22"/>
 <path d="M284 194 Q314 184 340 198" fill="none" stroke-width="14" stroke="#3a2a22"/>
 <!-- gözlük: dikdörtgen -->
 <rect x="164" y="202" width="76" height="48" rx="10" fill="#ffffff" fill-opacity="0.35"/>
 <rect x="272" y="202" width="76" height="48" rx="10" fill="#ffffff" fill-opacity="0.35"/>
 <path d="M240 224 L272 224" fill="none"/>
 <circle cx="202" cy="226" r="10" fill="#1d2330" stroke="none"/>
 <circle cx="310" cy="226" r="10" fill="#1d2330" stroke="none"/>
 <!-- burun -->
 <path d="M256 240 Q276 268 268 286 Q256 294 244 286" fill="none" stroke-width="8"/>
 <!-- ağız: ciddi düz -->
 <path d="M230 316 Q256 322 282 316" fill="none" stroke-width="9"/>
 <!-- el: fener tutan -->
 <circle cx="112" cy="470" r="32" fill="#e6ad88"/>
 <!-- el feneri -->
 <path d="M96 380 L128 380 L124 436 L100 436 Z" fill="#3a3f4a"/>
 <path d="M90 380 L134 380 L130 360 L94 360 Z" fill="#5d616a"/>
 <circle cx="112" cy="368" r="10" fill="#f2e6c9" stroke="none"/>
</g></svg>
