<svg xmlns="http://www.w3.org/2000/svg" width="512" height="512" viewBox="0 0 512 512"><defs><radialGradient id="bg" cx="50%" cy="40%" r="65%"><stop offset="0" stop-color="#e89a8a"/><stop offset="1" stop-color="#8a2b22"/></radialGradient></defs><rect width="512" height="512" rx="64" fill="url(#bg)"/>
<path d="M256 0 L448 0 Q512 0 512 64 L512 448 Q512 512 448 512 L256 512 Z" fill="#3a3a8a" opacity="0.55"/>
<g stroke="#1d2330" stroke-width="10" stroke-linejoin="round" stroke-linecap="round">
<path d="M76 512 Q86 404 196 384 L316 384 Q426 404 436 512 Z" fill="#c98a3a"/>
<path d="M196 384 L256 452 L316 384" fill="none" stroke="#5a2a6a" stroke-width="12"/>
<path d="M256 452 L256 512" fill="none" stroke="#5a2a6a" stroke-width="10"/>
<rect x="224" y="330" width="64" height="62" fill="#e6ad88"/>
<ellipse cx="126" cy="236" rx="24" ry="36" fill="#dba07c"/><ellipse cx="386" cy="236" rx="24" ry="36" fill="#dba07c"/>
<path d="M130 200 Q130 90 256 88 Q382 90 382 200 L378 270 Q360 360 256 368 Q152 360 134 270 Z" fill="#e6ad88"/>
<path d="M168 168 Q196 172 228 182" fill="none" stroke-width="14" stroke="#3a2a22"/><path d="M284 166 Q316 156 344 164" fill="none" stroke-width="14" stroke="#3a2a22"/>
<ellipse cx="200" cy="214" rx="22" ry="16" fill="#ffffff"/><circle cx="204" cy="216" r="9" fill="#1d2330" stroke="none"/>
<path d="M290 216 Q312 204 334 216" fill="none" stroke-width="10"/>
<path d="M256 226 Q278 262 270 282 Q256 290 242 282" fill="none" stroke-width="8"/>
<path d="M216 316 Q262 322 304 300" fill="none" stroke-width="9"/>
<path d="M256 290 Q216 280 184 302 Q222 308 256 302 Q290 308 328 302 Q296 280 256 290 Z" fill="#2a1e14" stroke-width="6"/>
<path d="M136 170 Q128 72 256 62 Q384 72 376 170 Q256 136 136 170 Z" fill="#e8d8b8"/>
<path d="M140 150 Q256 110 372 150 M150 116 Q256 86 362 116" fill="none" stroke-width="6" stroke="#b8b0a0"/>
<circle cx="256" cy="120" r="14" fill="#3a8a5a"/>
<circle cx="120" cy="450" r="24" fill="#d8b040"/><circle cx="392" cy="450" r="24" fill="#c8c8d0"/>
</g></svg>