<svg xmlns="http://www.w3.org/2000/svg" width="512" height="512" viewBox="0 0 512 512"><defs><radialGradient id="bg" cx="50%" cy="40%" r="65%"><stop offset="0" stop-color="#dcf6e6"/><stop offset="1" stop-color="#79bd95"/></radialGradient></defs><rect width="512" height="512" rx="64" fill="url(#bg)"/>
<g stroke="#1d2330" stroke-width="10" stroke-linejoin="round" stroke-linecap="round">
 <!-- yeşil kaftan -->
 <path d="M78 512 Q88 402 196 382 L316 382 Q424 402 434 512 Z" fill="#3f7f52"/>
 <path d="M206 382 L256 452 L306 382 Z" fill="#f3ecd8"/>
 <path d="M206 382 L256 452 M306 382 L256 452" fill="none" stroke="#d8b040" stroke-width="8"/>
 <!-- boyun -->
 <rect x="222" y="328" width="68" height="58" fill="#d8977a"/>
 <!-- kulaklar -->
 <ellipse cx="122" cy="238" rx="25" ry="37" fill="#dba07c"/>
 <ellipse cx="390" cy="238" rx="25" ry="37" fill="#dba07c"/>
 <!-- kafa -->
 <path d="M132 206 Q130 96 256 92 Q382 96 380 206 L376 274 Q362 358 256 366 Q150 358 136 274 Z" fill="#e6ad88"/>
 <!-- küçük beyaz sarık -->
 <path d="M144 158 Q140 74 256 68 Q372 74 368 158 Q334 110 256 108 Q178 110 144 158 Z" fill="#f4f1ea"/>
 <path d="M158 132 Q256 98 354 132" fill="none" stroke="#c6c0b0" stroke-width="8"/>
 <circle cx="256" cy="70" r="16" fill="#f4f1ea"/>
 <!-- kaşlar: biri kurnazca kalkık -->
 <path d="M166 178 Q196 168 228 178" fill="none" stroke-width="14" stroke="#3a2a22"/>
 <path d="M284 164 Q314 142 348 158" fill="none" stroke-width="14" stroke="#3a2a22"/>
 <!-- gözler: yarı kapalı, yana bakan -->
 <ellipse cx="200" cy="216" rx="21" ry="14" fill="#ffffff"/>
 <ellipse cx="312" cy="212" rx="21" ry="15" fill="#ffffff"/>
 <circle cx="208" cy="217" r="8" fill="#1d2330" stroke="none"/>
 <circle cx="320" cy="213" r="8" fill="#1d2330" stroke="none"/>
 <path d="M180 204 Q200 198 220 204 M292 200 Q312 194 332 200" fill="none" stroke-width="8"/>
 <!-- burun -->
 <path d="M256 226 Q280 262 270 284 Q256 292 242 284" fill="none" stroke-width="8"/>
 <!-- kurnaz gülümseme -->
 <path d="M206 318 Q258 334 312 300" fill="none" stroke-width="9"/>
 <!-- mürekkepli parmaklar (çenede el) -->
 <circle cx="158" cy="376" r="24" fill="#e6ad88"/>
 <circle cx="142" cy="354" r="7" fill="#1d2330" stroke="none"/>
 <circle cx="156" cy="348" r="7" fill="#1d2330" stroke="none"/>
 <circle cx="171" cy="352" r="7" fill="#1d2330" stroke="none"/>
</g></svg>
