<svg xmlns="http://www.w3.org/2000/svg" width="512" height="512" viewBox="0 0 512 512"><defs><radialGradient id="bg" cx="50%" cy="40%" r="65%"><stop offset="0" stop-color="#d8d8e0"/><stop offset="1" stop-color="#6a6a7a"/></radialGradient></defs><rect width="512" height="512" rx="64" fill="url(#bg)"/>
<g stroke="#1d2330" stroke-width="10" stroke-linejoin="round" stroke-linecap="round">
<path d="M76 512 Q86 404 196 384 L316 384 Q426 404 436 512 Z" fill="#2a2a3a"/>
<path d="M196 384 L256 452 L316 384 Z" fill="#f0ece0"/>
<rect x="224" y="330" width="64" height="62" fill="#e6ad88"/>
<ellipse cx="126" cy="236" rx="24" ry="36" fill="#dba07c"/><ellipse cx="386" cy="236" rx="24" ry="36" fill="#dba07c"/>
<path d="M130 200 Q130 90 256 88 Q382 90 382 200 L378 270 Q360 360 256 368 Q152 360 134 270 Z" fill="#e6ad88"/>
<path d="M130 196 Q126 84 256 80 Q386 84 382 196 L366 150 Q256 120 146 150 Z" fill="#8a8a8a"/>
<path d="M168 168 L228 182" fill="none" stroke-width="16" stroke="#6a6a6a"/><path d="M284 182 L344 168" fill="none" stroke-width="16" stroke="#6a6a6a"/>
<ellipse cx="200" cy="214" rx="22" ry="18" fill="#ffffff"/><circle cx="204" cy="216" r="9" fill="#1d2330" stroke="none"/><circle cx="207" cy="212" r="3" fill="#ffffff" stroke="none"/>
<ellipse cx="312" cy="214" rx="22" ry="18" fill="#ffffff"/><circle cx="316" cy="216" r="9" fill="#1d2330" stroke="none"/><circle cx="319" cy="212" r="3" fill="#ffffff" stroke="none"/>
<circle cx="200" cy="214" r="34" fill="#dde8f0" fill-opacity="0.25" stroke-width="8"/>
<circle cx="312" cy="214" r="34" fill="#dde8f0" fill-opacity="0.25" stroke-width="8"/>
<path d="M234 214 L278 214" fill="none" stroke-width="8"/>
<path d="M256 226 Q278 262 270 282 Q256 290 242 282" fill="none" stroke-width="8"/>
<path d="M220 316 L292 316" fill="none" stroke-width="9"/>
<path d="M400 512 Q420 420 470 360 Q440 440 420 512 Z" fill="#f0ece0" stroke-width="7"/>
</g></svg>