<svg xmlns="http://www.w3.org/2000/svg" width="512" height="512" viewBox="0 0 512 512"><defs><radialGradient id="bg" cx="50%" cy="40%" r="65%"><stop offset="0" stop-color="#c9d6e8"/><stop offset="1" stop-color="#6f86a8"/></radialGradient></defs><rect width="512" height="512" rx="64" fill="url(#bg)"/>
<g stroke="#1d2330" stroke-width="10" stroke-linejoin="round" stroke-linecap="round">
<path d="M76 512 Q86 404 196 384 L316 384 Q426 404 436 512 Z" fill="#6a1e22"/>
<rect x="224" y="330" width="64" height="62" fill="#e0b08a"/>
<ellipse cx="126" cy="236" rx="24" ry="36" fill="#d49e78"/><ellipse cx="386" cy="236" rx="24" ry="36" fill="#d49e78"/>
<path d="M130 200 Q130 90 256 88 Q382 90 382 200 L378 270 Q360 360 256 368 Q152 360 134 270 Z" fill="#e0b08a"/>
<path d="M168 176 Q196 168 228 178" fill="none" stroke-width="14" stroke="#6a6058"/><path d="M284 178 Q316 168 344 176" fill="none" stroke-width="14" stroke="#6a6058"/>
<ellipse cx="200" cy="214" rx="22" ry="17" fill="#ffffff"/><circle cx="204" cy="216" r="9" fill="#1d2330" stroke="none"/><circle cx="207" cy="212" r="3" fill="#ffffff" stroke="none"/>
<ellipse cx="312" cy="214" rx="22" ry="17" fill="#ffffff"/><circle cx="316" cy="216" r="9" fill="#1d2330" stroke="none"/><circle cx="319" cy="212" r="3" fill="#ffffff" stroke="none"/>
<path d="M256 226 Q282 262 272 284 Q256 292 240 284" fill="none" stroke-width="8"/><path d="M176 246 Q190 252 204 248" fill="none" stroke-width="5"/><path d="M308 248 Q322 252 336 246" fill="none" stroke-width="5"/>
<path d="M150 270 Q158 350 256 374 Q354 350 362 270 Q340 330 256 334 Q172 330 150 270 Z" fill="#8a8076"/>
<path d="M256 290 Q216 280 184 302 Q222 308 256 302 Q290 308 328 302 Q296 280 256 290 Z" fill="#8a8076" stroke-width="6"/>
<path d="M216 318 Q258 326 300 312" fill="none" stroke-width="9"/>
<path d="M128 170 Q120 70 256 62 Q400 66 392 160 Q380 120 256 118 Q150 120 128 170 Z" fill="#7a1e24"/>
<path d="M128 170 Q150 126 256 124 Q370 126 392 160 L394 176 Q372 140 256 138 Q150 140 126 186 Z" fill="#3a1216"/>
</g></svg>
